<svg xmlns="http://www.w3.org/2000/svg" width="900" height="500" viewBox="0 0 900 500"><style>text{font-family:"Noto Sans SC","PingFang SC",sans-serif}
.t{fill:#2D1B14;font-weight:700}.t2{fill:#2D1B14;font-weight:600}
.s{fill:#8B7355;font-size:12px}.s2{fill:#C4A882;font-size:11px}
.l{fill:#2D1B14;font-size:14px}.l2{fill:#2D1B14;font-size:13px}
.a{fill:#FF7F50}.g{fill:#7ECFB3}.w{fill:#FFF}.dim{fill:#C4A882}</style><defs>
  <filter id="s"><feDropShadow dx="0" dy="4" stdDeviation="12" flood-color="#D4A574" flood-opacity="0.15"/></filter>
  <filter id="s2"><feDropShadow dx="0" dy="2" stdDeviation="6" flood-color="#D4A574" flood-opacity="0.12"/></filter>
  <linearGradient id="ag"><stop offset="0%" stop-color="#FF7F50"/><stop offset="100%" stop-color="#FFB347"/></linearGradient>
  <linearGradient id="pg"><stop offset="0%" stop-color="#FFF8F3"/><stop offset="100%" stop-color="#FFE8D6"/></linearGradient>
  <linearGradient id="mg"><stop offset="0%" stop-color="#7ECFB3"/><stop offset="100%" stop-color="#B8E8D0"/></linearGradient>
  <linearGradient id="pk"><stop offset="0%" stop-color="#FF6B8A"/><stop offset="100%" stop-color="#FFB347"/></linearGradient>
</defs><rect width="900" height="500" fill="#FFF8F3"/><rect x="0" y="0" width="900" height="52" rx="0" fill="#FFF1E8"/><text x="16" y="34" text-anchor="start" class="t2" font-size="16">⚙️ Settings</text><line x1="0" y1="52" x2="900" y2="52" stroke="#F0E0D0" stroke-width="1"/>
<text x="70" y="34" text-anchor="middle" class="t2" font-size="12">General</text><rect x="40" y="42" width="60" height="3" rx="1.5" fill="#FF7F50"/><text x="165" y="34" text-anchor="middle" class="s" font-size="12">Permissions</text><text x="260" y="34" text-anchor="middle" class="s" font-size="12">Model</text><text x="355" y="34" text-anchor="middle" class="s" font-size="12">Log</text><text x="450" y="34" text-anchor="middle" class="s" font-size="12">About</text>
<text x="30" y="75" text-anchor="start" class="s">Gateway 状态</text><text x="200" y="75" text-anchor="start" class="g">● Ready</text>
<text x="30" y="105" text-anchor="start" class="s">安装路径</text><text x="200" y="105" text-anchor="start" class="dim" font-size="12">C:\Users\xxx\AppData\...</text>
<text x="30" y="135" text-anchor="start" class="s">工作区</text><text x="200" y="135" text-anchor="start" class="l">D:\Projects\AnyClaw</text>
<line x1="30" y1="155" x2="700" y2="155" stroke="#F0E0D0" stroke-width="1"/>
<text x="30" y="180" text-anchor="start" class="l">开机自启</text><rect x="600" y="168" width="48" height="26" rx="13" fill="#FF7F50"/><circle cx="635" cy="181" r="10" fill="white"/>
<text x="30" y="215" text-anchor="start" class="l">崩溃重启</text><rect x="600" y="203" width="48" height="26" rx="13" fill="#F0E0D0"/><circle cx="615" cy="216" r="10" fill="#C4A882"/>
<line x1="30" y1="240" x2="700" y2="240" stroke="#F0E0D0" stroke-width="1"/>
<text x="30" y="265" text-anchor="start" class="l">主题</text>
<rect x="200" y="253" width="80" height="28" rx="14" fill="#FF7F50"/><text x="240" y="271" text-anchor="middle" fill="#FFF" font-size="11">☀️ 暖色</text><rect x="290" y="253" width="80" height="28" rx="14" fill="#FFF1E8"/><text x="330" y="271" text-anchor="middle" class="#8B7355" font-size="11">🌙 暗色</text><rect x="380" y="253" width="80" height="28" rx="14" fill="#FFF1E8"/><text x="420" y="271" text-anchor="middle" class="#8B7355" font-size="11">💜 经典</text>
<text x="30" y="300" text-anchor="start" class="l">语言</text><rect x="200" y="288" width="140" height="32" rx="12" fill="#FFF1E8" stroke="#F0E0D0" stroke-width="1"/><text x="215" y="310" text-anchor="start" class="l" font-size="12">CN / EN / KR / JP</text>
<line x1="30" y1="340" x2="700" y2="340" stroke="#F0E0D0" stroke-width="1"/>
<text x="30" y="365" text-anchor="start" class="s">安全状态</text>
<text x="50" y="388" text-anchor="start" class="g">API Key: ✅ 已配置</text><text x="300" y="388" text-anchor="start" class="s">Gateway: 18789</text><text x="500" y="388" text-anchor="start" class="g">配置目录: 可写 ✅</text>
<rect x="230" y="420" width="260" height="40" rx="20" fill="url(#ag)"/><text x="360" y="445" text-anchor="middle" class="w" font-size="13">🔧 重新运行向导</text>
</svg>