<svg xmlns="http://www.w3.org/2000/svg" width="900" height="500" viewBox="0 0 900 500"><style>text{font-family:"Noto Sans SC","PingFang SC",sans-serif}
.t{fill:#2D1B14;font-weight:700}.t2{fill:#2D1B14;font-weight:600}
.s{fill:#8B7355;font-size:12px}.s2{fill:#C4A882;font-size:11px}
.l{fill:#2D1B14;font-size:14px}.l2{fill:#2D1B14;font-size:13px}
.a{fill:#FF7F50}.g{fill:#7ECFB3}.w{fill:#FFF}.dim{fill:#C4A882}</style><defs>
  <filter id="s"><feDropShadow dx="0" dy="4" stdDeviation="12" flood-color="#D4A574" flood-opacity="0.15"/></filter>
  <filter id="s2"><feDropShadow dx="0" dy="2" stdDeviation="6" flood-color="#D4A574" flood-opacity="0.12"/></filter>
  <linearGradient id="ag"><stop offset="0%" stop-color="#FF7F50"/><stop offset="100%" stop-color="#FFB347"/></linearGradient>
  <linearGradient id="pg"><stop offset="0%" stop-color="#FFF8F3"/><stop offset="100%" stop-color="#FFE8D6"/></linearGradient>
  <linearGradient id="mg"><stop offset="0%" stop-color="#7ECFB3"/><stop offset="100%" stop-color="#B8E8D0"/></linearGradient>
  <linearGradient id="pk"><stop offset="0%" stop-color="#FF6B8A"/><stop offset="100%" stop-color="#FFB347"/></linearGradient>
</defs><rect width="900" height="500" fill="#FFF8F3"/><rect x="0" y="0" width="900" height="52" rx="0" fill="#FFF1E8"/><text x="16" y="34" text-anchor="start" class="t2" font-size="16">⚙️ Settings</text><line x1="0" y1="52" x2="900" y2="52" stroke="#F0E0D0" stroke-width="1"/>
<text x="70" y="34" text-anchor="middle" class="s" font-size="12">General</text><text x="165" y="34" text-anchor="middle" class="s" font-size="12">Perms</text><text x="260" y="34" text-anchor="middle" class="s" font-size="12">Model</text><text x="355" y="34" text-anchor="middle" class="s" font-size="12">Log</text><text x="450" y="34" text-anchor="middle" class="t2" font-size="12">Flags</text><rect x="420" y="42" width="60" height="3" rx="1.5" fill="#FF7F50"/><text x="545" y="34" text-anchor="middle" class="s" font-size="12">Tracing</text>
<text x="30" y="75" text-anchor="start" class="t" font-size="16">功能开关 ⚡</text>
<text x="30" y="100" text-anchor="start" class="s">低风险灰度发布, 无需重新编译</text>
<line x1="30" y1="115" x2="700" y2="115" stroke="#F0E0D0" stroke-width="0.5"/>
<text x="30" y="140" text-anchor="start" class="l2">沙箱执行</text><text x="350" y="140" text-anchor="start" class="dim">sbx_sandbox_exec</text><rect x="620" y="128" width="48" height="26" rx="13" fill="#F0E0D0"/><circle cx="630" cy="141" r="10" fill="#C4A882"/>
<text x="30" y="175" text-anchor="start" class="l2">可观测性追踪</text><text x="350" y="175" text-anchor="start" class="s">obs_tracing ⚠需重启</text><rect x="620" y="163" width="48" height="26" rx="13" fill="#F0E0D0"/>
<text x="30" y="210" text-anchor="start" class="l2">启动自修复</text><text x="350" y="210" text-anchor="start" class="dim">boot_self_heal</text><rect x="620" y="198" width="48" height="26" rx="13" fill="#F0E0D0"/>
<text x="30" y="245" text-anchor="start" class="l2">长期记忆</text><text x="350" y="245" text-anchor="start" class="dim">mem_long_term</text><rect x="620" y="233" width="48" height="26" rx="13" fill="#F0E0D0"/>
<text x="30" y="280" text-anchor="start" class="l2">知识库</text><text x="350" y="280" text-anchor="start" class="dim">kb_knowledge_base</text><rect x="620" y="268" width="48" height="26" rx="13" fill="#F0E0D0"/>
<text x="30" y="315" text-anchor="start" class="l2">远程协作</text><text x="350" y="315" text-anchor="start" class="s">remote_collab ⚠需重启</text><rect x="620" y="303" width="48" height="26" rx="13" fill="#F0E0D0"/>
<rect x="250" y="360" width="200" height="36" rx="18" fill="url(#ag)"/><text x="350" y="383" text-anchor="middle" class="w" font-size="13">重置全部默认值</text>
</svg>