<svg xmlns="http://www.w3.org/2000/svg" width="1280" height="800" viewBox="0 0 1280 800">
  <defs>
    <style>
      @keyframes blink { 0%,100%{opacity:1;} 50%{opacity:0.3;} }
      @keyframes spin { from{transform:rotate(0deg);} to{transform:rotate(360deg);} }
    </style>
  </defs>

  <rect width="1280" height="800" fill="#0F1117"/>

  <!-- ===== Header (h=41) ===== -->
  <rect x="0" y="0" width="1280" height="41" fill="#0A0C10"/>
  <circle cx="23" cy="21" r="9" fill="#3DD68C"/>
  <line x1="16" y1="13" x2="13" y2="8" stroke="#3DD68C" stroke-width="1.5" stroke-linecap="round"/>
  <line x1="30" y1="13" x2="33" y2="8" stroke="#3DD68C" stroke-width="1.5" stroke-linecap="round"/>
  <circle cx="13" cy="8" r="2.5" fill="#3DD68C"/>
  <circle cx="33" cy="8" r="2.5" fill="#3DD68C"/>
  <ellipse cx="20" cy="19" rx="2.5" ry="3" fill="#0F1117"/>
  <ellipse cx="26" cy="19" rx="2.5" ry="3" fill="#0F1117"/>
  <circle cx="21" cy="18" r="1" fill="#FFFFFF"/>
  <circle cx="27" cy="18" r="1" fill="#FFFFFF"/>
  <ellipse cx="17" cy="23" rx="3" ry="1.5" fill="#FF9EB5" opacity="0.7"/>
  <ellipse cx="29" cy="23" rx="3" ry="1.5" fill="#FF9EB5" opacity="0.7"/>
  <path d="M 21 25 Q 23 28 26 25" stroke="#0F1117" stroke-width="1.2" fill="none" stroke-linecap="round"/>
  <text x="48" y="26" font-family="sans-serif" font-size="13" fill="#E8ECF4">AnyClaw Setup</text>
  <text x="1166" y="25" text-anchor="middle" font-size="11" fill="#6B7280">─</text>
  <rect x="1187" y="10" width="30" height="21" rx="4" fill="#252A38"/>
  <text x="1202" y="25" text-anchor="middle" font-size="10" fill="#6B7280">□</text>
  <rect x="1223" y="10" width="30" height="21" rx="4" fill="#3DD68C" fill-opacity="0.15"/>
  <text x="1238" y="25" text-anchor="middle" font-size="11" fill="#3DD68C">✕</text>

  <!-- ===== StepBar (y=41, h=48) ===== -->
  <rect x="0" y="41" width="1280" height="48" fill="#0F1117"/>
  <line x1="0" y1="89" x2="1280" y2="89" stroke="#252A38" stroke-width="1"/>
  <!-- Step 0 (completed) -->
  <circle cx="448" cy="65" r="6" fill="#3DD68C"/>
  <text x="448" y="85" text-anchor="middle" font-family="sans-serif" font-size="11" fill="#3DD68C">语言</text>
  <!-- Step 0→1 line (active) -->
  <line x1="454" y1="65" x2="574" y2="65" stroke="#3DD68C" stroke-width="1.5"/>
  <!-- Step 1 (current) -->
  <circle cx="580" cy="65" r="6" fill="#3DD68C"/>
  <text x="580" y="85" text-anchor="middle" font-family="sans-serif" font-size="11" fill="#3DD68C">环境</text>
  <!-- Step 1→2 line (future) -->
  <line x1="586" y1="65" x2="706" y2="65" stroke="#252A38" stroke-width="1.5"/>
  <!-- Step 2 (future) -->
  <circle cx="712" cy="65" r="6" fill="transparent" stroke="#3DD68C" stroke-width="1.5"/>
  <text x="712" y="85" text-anchor="middle" font-family="sans-serif" font-size="11" fill="#6B7280">模型</text>
  <!-- Step 2→3 line (future) -->
  <line x1="718" y1="65" x2="838" y2="65" stroke="#252A38" stroke-width="1.5"/>
  <!-- Step 3 (future) -->
  <circle cx="844" cy="65" r="6" fill="transparent" stroke="#3DD68C" stroke-width="1.5"/>
  <text x="844" y="85" text-anchor="middle" font-family="sans-serif" font-size="11" fill="#6B7280">完成</text>

  <!-- ===== Content (y=89, h=611) ===== -->
  <rect x="0" y="89" width="1280" height="611" fill="#0F1117"/>

  <!-- Title -->
  <text x="640" y="140" text-anchor="middle" font-family="sans-serif" font-size="18" fill="#E8ECF4" font-weight="bold">🔧 检测与安装</text>
  <text x="640" y="164" text-anchor="middle" font-family="sans-serif" font-size="13" fill="#8B92A8">运行环境检测 / OpenClaw · Hermes · Claude Code 安装</text>

  <!-- Left panel: detection results (x=95, y=185, w=560, h=340) -->
  <rect x="95" y="185" width="560" height="340" rx="10" fill="#13151E" stroke="#3DD68C" stroke-opacity="0.08" stroke-width="1"/>
  <text x="115" y="210" font-family="sans-serif" font-size="12" fill="#8B92A8" font-weight="bold">检测结果</text>
  <line x1="95" y1="218" x2="655" y2="218" stroke="#3DD68C" stroke-opacity="0.06" stroke-width="1"/>

  <!-- Item 1: Node.js ✅ -->
  <circle cx="120" cy="243" r="5" fill="#3DD68C"/>
  <text x="135" y="248" font-family="sans-serif" font-size="12" fill="#E8ECF4">Node.js</text>
  <text x="560" y="248" font-family="Consolas,monospace" font-size="11" fill="#8B92A8">v22.14.0</text>
  <text x="625" y="248" font-family="sans-serif" font-size="12" fill="#3DD68C">✓ Pass</text>

  <!-- Item 2: npm ✅ -->
  <circle cx="120" cy="283" r="5" fill="#3DD68C"/>
  <text x="135" y="288" font-family="sans-serif" font-size="12" fill="#E8ECF4">npm</text>
  <text x="560" y="288" font-family="Consolas,monospace" font-size="11" fill="#8B92A8">v10.8.0</text>
  <text x="625" y="288" font-family="sans-serif" font-size="12" fill="#3DD68C">✓ Pass</text>

  <!-- Item 3: Network ✅ -->
  <circle cx="120" cy="323" r="5" fill="#3DD68C"/>
  <text x="135" y="328" font-family="sans-serif" font-size="12" fill="#E8ECF4">网络连通</text>
  <text x="560" y="328" font-family="sans-serif" font-size="11" fill="#8B92A8">google.com</text>
  <text x="625" y="328" font-family="sans-serif" font-size="12" fill="#3DD68C">✓ Pass</text>

  <!-- Item 4: OpenClaw ✅ -->
  <circle cx="120" cy="363" r="5" fill="#3DD68C"/>
  <text x="135" y="368" font-family="sans-serif" font-size="12" fill="#E8ECF4">OpenClaw</text>
  <text x="560" y="368" font-family="sans-serif" font-size="11" fill="#8B92A8">v1.2.0</text>
  <text x="625" y="368" font-family="sans-serif" font-size="12" fill="#3DD68C">✓ Pass</text>

  <!-- Item 5: Hermes ⚠️ -->
  <circle cx="120" cy="403" r="5" fill="#F59E0B"/>
  <text x="135" y="408" font-family="sans-serif" font-size="12" fill="#E8ECF4">Hermes CLI</text>
  <text x="560" y="408" font-family="sans-serif" font-size="11" fill="#F59E0B">未安装</text>
  <text x="625" y="408" font-family="sans-serif" font-size="12" fill="#F59E0B">⚠ Warn</text>

  <!-- Item 6: Claude Code ⚠️ -->
  <circle cx="120" cy="443" r="5" fill="#F59E0B"/>
  <text x="135" y="448" font-family="sans-serif" font-size="12" fill="#E8ECF4">Claude Code CLI</text>
  <text x="560" y="448" font-family="sans-serif" font-size="11" fill="#F59E0B">未安装</text>
  <text x="625" y="448" font-family="sans-serif" font-size="12" fill="#F59E0B">⚠ Warn</text>

  <!-- Item 7: Disk Space ✅ -->
  <circle cx="120" cy="483" r="5" fill="#3DD68C"/>
  <text x="135" y="488" font-family="sans-serif" font-size="12" fill="#E8ECF4">磁盘空间</text>
  <text x="560" y="488" font-family="sans-serif" font-size="11" fill="#8B92A8">12.5 GB 可用</text>
  <text x="625" y="488" font-family="sans-serif" font-size="12" fill="#3DD68C">✓ Pass</text>

  <!-- Right panel: log (x=680, y=185, w=560, h=340) -->
  <rect x="680" y="185" width="560" height="340" rx="10" fill="#13151E" stroke="#3DD68C" stroke-opacity="0.08" stroke-width="1"/>
  <text x="700" y="210" font-family="sans-serif" font-size="12" fill="#8B92A8" font-weight="bold">📺 检测与安装日志</text>
  <line x1="680" y1="218" x2="1240" y2="218" stroke="#3DD68C" stroke-opacity="0.06" stroke-width="1"/>
  <!-- Log lines -->
  <text x="700" y="243" font-family="Consolas,monospace" font-size="10" fill="#3DD68C">$ node --version</text>
  <text x="700" y="258" font-family="Consolas,monospace" font-size="10" fill="#8B92A8">v22.14.0</text>
  <text x="700" y="283" font-family="Consolas,monospace" font-size="10" fill="#3DD68C">$ npm --version</text>
  <text x="700" y="298" font-family="Consolas,monospace" font-size="10" fill="#8B92A8">10.8.0</text>
  <text x="700" y="323" font-family="Consolas,monospace" font-size="10" fill="#3DD68C">$ curl -I https://google.com</text>
  <text x="700" y="338" font-family="Consolas,monospace" font-size="10" fill="#8B92A8">HTTP/2 200</text>
  <text x="700" y="363" font-family="Consolas,monospace" font-size="10" fill="#F59E0B">⚠ hermes command not found</text>
  <text x="700" y="383" font-family="Consolas,monospace" font-size="10" fill="#F59E0B">⚠ claude command not found</text>

  <!-- ===== Action buttons (y=545) ===== -->
  <rect x="290" y="545" width="210" height="40" rx="8" fill="#3DD68C"/>
  <text x="395" y="570" text-anchor="middle" font-family="sans-serif" font-size="12" fill="#0F1117" font-weight="bold">从网络下载（推荐）</text>

  <rect x="515" y="545" width="160" height="40" rx="8" fill="#252A38"/>
  <text x="595" y="570" text-anchor="middle" font-family="sans-serif" font-size="12" fill="#E8ECF4">本地离线包</text>

  <rect x="690" y="545" width="140" height="40" rx="8" fill="#252A38"/>
  <text x="760" y="570" text-anchor="middle" font-family="sans-serif" font-size="12" fill="#8B92A8">稍后手动</text>

  <!-- ===== Footer (y=700, h=100) ===== -->
  <rect x="0" y="700" width="1280" height="100" fill="#0A0C10"/>
  <line x1="0" y1="700" x2="1280" y2="700" stroke="#3DD68C" stroke-opacity="0.15" stroke-width="1"/>
  <!-- Exit -->
  <rect x="83" y="724" width="90" height="40" rx="8" fill="#252A38"/>
  <text x="128" y="747" text-anchor="middle" font-family="sans-serif" font-size="12" fill="#E8ECF4">退出向导</text>
  <!-- Prev -->
  <rect x="1083" y="724" width="80" height="40" rx="8" fill="#252A38"/>
  <text x="1123" y="747" text-anchor="middle" font-family="sans-serif" font-size="12" fill="#E8ECF4">上一步</text>
  <!-- Next (disabled) -->
  <rect x="1173" y="724" width="90" height="40" rx="8" fill="#252A38" fill-opacity="0.5"/>
  <text x="1218" y="747" text-anchor="middle" font-family="sans-serif" font-size="12" fill="#4B5268">下一步</text>
</svg>
