<svg xmlns="http://www.w3.org/2000/svg" width="1280" height="800">
  <!-- Background -->
  <rect width="1280" height="800" fill="#0F1117"/>

  <!-- Title Bar -->
  <rect x="0" y="0" width="1280" height="41" fill="#0A0C10"/>
  <circle cx="27" cy="17" r="8" fill="#3DD68C"/>
  <line x1="21" y1="9" x2="19" y2="5" stroke="#3DD68C" stroke-width="1.5" stroke-linecap="round"/>
  <line x1="33" y1="9" x2="35" y2="5" stroke="#3DD68C" stroke-width="1.5" stroke-linecap="round"/>
  <circle cx="19" cy="5" r="2.5" fill="#3DD68C"/>
  <circle cx="35" cy="5" r="2.5" fill="#3DD68C"/>
  <ellipse cx="23" cy="15" rx="2.5" ry="3" fill="#0F1117"/>
  <ellipse cx="31" cy="15" rx="2.5" ry="3" fill="#0F1117"/>
  <circle cx="24" cy="14" r="1" fill="#FFFFFF"/>
  <circle cx="32" cy="14" r="1" fill="#FFFFFF"/>
  <ellipse cx="20" cy="19" rx="3" ry="1.5" fill="#FF9EB5" opacity="0.7"/>
  <ellipse cx="34" cy="19" rx="3" ry="1.5" fill="#FF9EB5" opacity="0.7"/>
  <path d="M 24 21 Q 27 24 30 21" stroke="#0F1117" stroke-width="1.2" fill="none" stroke-linecap="round"/>
  <text x="48" y="24" font-family="sans-serif" font-size="13" fill="#E8ECF4">AnyClaw · Workstation</text>
  <rect x="1193" y="12" width="30" height="17" rx="4" fill="#252A38"/>
  <text x="1208" y="24" text-anchor="middle" font-size="10" fill="#6B7280">□</text>
  <rect x="1229" y="12" width="30" height="17" rx="4" fill="#3DD68C" fill-opacity="0.2"/>
  <text x="1244" y="24" text-anchor="middle" font-size="10" fill="#3DD68C">✕</text>

  <!-- Left NAV (x=0, w=64) -->
  <rect x="0" y="41" width="64" height="759" fill="#0A0C10"/>
  <!-- Bot -->
  <rect x="8" y="48" width="48" height="48" rx="8" fill="transparent"/>
  <text x="32" y="74" text-anchor="middle" font-size="18">🤖</text>
  <!-- Workspace (active) -->
  <rect x="8" y="100" width="48" height="48" rx="8" fill="#252A38"/>
  <rect x="8" y="100" width="3" height="48" rx="1.5" fill="#3DD68C"/>
  <text x="32" y="126" text-anchor="middle" font-size="18">🖥</text>
  <!-- KB -->
  <rect x="8" y="152" width="48" height="48" rx="8" fill="transparent"/>
  <text x="32" y="178" text-anchor="middle" font-size="18">📚</text>
  <!-- Skill -->
  <rect x="8" y="204" width="48" height="48" rx="8" fill="transparent"/>
  <text x="32" y="230" text-anchor="middle" font-size="18">🧩</text>
  <!-- Settings (left bottom) -->
  <rect x="8" y="752" width="48" height="36" rx="8" fill="transparent"/>
  <text x="32" y="774" text-anchor="middle" font-size="16">⚙️</text>

  <!-- Left Panel - Project Explorer (x=64, w=216) -->
  <rect x="64" y="41" width="216" height="759" fill="#13151E"/>
  <!-- Header -->
  <text x="80" y="62" font-family="sans-serif" font-size="11" fill="#E8ECF4" font-weight="600">文件</text>
  <line x1="64" y1="70" x2="280" y2="70" stroke="#252A38" stroke-width="1"/>
  <!-- Project dropdown + add button -->
  <rect x="72" y="76" width="116" height="24" rx="4" fill="#1A1D27"/>
  <text x="80" y="92" font-family="sans-serif" font-size="10" fill="#E8ECF4">AnyClaw</text>
  <text x="174" y="91" font-family="sans-serif" font-size="8" fill="#6B7280">▼</text>
  <rect x="194" y="76" width="22" height="22" rx="4" fill="#1A1D27"/>
  <text x="205" y="91" text-anchor="middle" font-size="14" fill="#6B7280">+</text>
  <!-- Project path -->
  <rect x="72" y="108" width="196" height="16" rx="3" fill="#1A1D27"/>
  <text x="80" y="120" font-family="sans-serif" font-size="8" fill="#3DD68C">D:\workspace\AnyClaw</text>
  <!-- Search -->
  <rect x="72" y="132" width="196" height="22" rx="4" fill="#1A1D27"/>
  <text x="80" y="147" font-family="sans-serif" font-size="10" fill="#6B7280">🔍 搜索...</text>
  <!-- Project label -->
  <text x="72" y="170" font-family="sans-serif" font-size="9" fill="#6B7280">ANYCLAW_LVGL</text>
  <!-- File tree -->
  <rect x="72" y="178" width="196" height="22" rx="3" fill="#1A1D27"/>
  <text x="80" y="192" font-family="sans-serif" font-size="10" fill="#E8ECF4">📁 src/</text>
  <rect x="72" y="204" width="196" height="22" rx="3" fill="#252A38"/>
  <rect x="72" y="204" width="3" height="22" rx="1.5" fill="#3DD68C"/>
  <text x="82" y="218" font-family="sans-serif" font-size="10" fill="#E8ECF4">📄 ui_main.cpp</text>
  <rect x="72" y="230" width="196" height="22" rx="3" fill="#1A1D27"/>
  <text x="82" y="244" font-family="sans-serif" font-size="10" fill="#E8ECF4">📄 boot_check.cpp</text>
  <rect x="72" y="256" width="196" height="22" rx="3" fill="#1A1D27"/>
  <text x="82" y="270" font-family="sans-serif" font-size="10" fill="#8B92A8">📁 docs/</text>
  <rect x="72" y="282" width="196" height="22" rx="3" fill="#1A1D27"/>
  <text x="82" y="296" font-family="sans-serif" font-size="10" fill="#8B92A8">📁 ui/</text>
  <!-- Left Panel collapse button (at x=280, on center panel's left edge) -->
  <rect x="280" y="360" width="14" height="40" rx="3" fill="#252A38"/>
  <text x="287" y="384" text-anchor="middle" font-family="sans-serif" font-size="10" fill="#6B7280">◀</text>

  <!-- Center Panel (x=280, w=640) -->
  <rect x="280" y="41" width="640" height="759" fill="#0F1117"/>

  <!-- === 上部：文件编辑区 (y=41~430) === -->
  <!-- File tab bar -->
  <rect x="280" y="41" width="640" height="33" fill="#0A0C10"/>
  <rect x="280" y="41" width="100" height="33" fill="#13151E"/>
  <text x="294" y="62" font-family="sans-serif" font-size="11" fill="#E8ECF4">main.cpp</text>
  <rect x="372" y="50" width="8" height="14" rx="4" fill="#252A38"/>
  <text x="376" y="60" text-anchor="middle" font-size="8" fill="#6B7280">✕</text>
  <rect x="380" y="41" width="80" height="33" fill="#13151E"/>
  <text x="394" y="62" font-family="sans-serif" font-size="11" fill="#E8ECF4">utils.h</text>
  <rect x="452" y="50" width="8" height="14" rx="4" fill="#252A38"/>
  <text x="456" y="60" text-anchor="middle" font-size="8" fill="#6B7280">✕</text>
  <rect x="460" y="41" width="100" height="33" fill="#13151E"/>
  <text x="474" y="62" font-family="sans-serif" font-size="11" fill="#E8ECF4">🌐 feishu</text>
  <rect x="552" y="50" width="8" height="14" rx="4" fill="#252A38"/>
  <text x="556" y="60" text-anchor="middle" font-size="8" fill="#6B7280">✕</text>
  <rect x="568" y="48" width="24" height="20" rx="4" fill="#0A0C10"/>
  <text x="580" y="62" text-anchor="middle" font-size="14" fill="#6B7280">+</text>

  <!-- Code editor content -->
  <rect x="280" y="74" width="640" height="356" fill="#0F1117"/>
  <!-- Line numbers -->
  <rect x="280" y="74" width="36" height="356" fill="#0A0C10"/>
  <text x="294" y="98" font-family="Consolas,monospace" font-size="11" fill="#6B7280">1</text>
  <text x="294" y="118" font-family="Consolas,monospace" font-size="11" fill="#6B7280">2</text>
  <text x="294" y="138" font-family="Consolas,monospace" font-size="11" fill="#6B7280">3</text>
  <text x="294" y="158" font-family="Consolas,monospace" font-size="11" fill="#6B7280">4</text>
  <text x="294" y="178" font-family="Consolas,monospace" font-size="11" fill="#6B7280">5</text>
  <text x="294" y="198" font-family="Consolas,monospace" font-size="11" fill="#6B7280">6</text>
  <text x="294" y="218" font-family="Consolas,monospace" font-size="11" fill="#6B7280">7</text>
  <text x="294" y="238" font-family="Consolas,monospace" font-size="11" fill="#6B7280">8</text>
  <text x="294" y="258" font-family="Consolas,monospace" font-size="11" fill="#6B7280">9</text>
  <text x="294" y="278" font-family="Consolas,monospace" font-size="11" fill="#6B7280">10</text>
  <!-- Code lines -->
  <text x="324" y="98" font-family="Consolas,monospace" font-size="11" fill="#9CDCFE">#include "anyclaw.h"</text>
  <text x="324" y="118" font-family="Consolas,monospace" font-size="11" fill="#6B7280">// AnyClaw LVGL Workstation</text>
  <text x="324" y="138" font-family="Consolas,monospace" font-size="11" fill="#DCDCAA">int main() {</text>
  <text x="340" y="158" font-family="Consolas,monospace" font-size="11" fill="#DCDCAA">  init_gateway();</text>
  <text x="340" y="178" font-family="Consolas,monospace" font-size="11" fill="#DCDCAA">  load_plugins();</text>
  <text x="340" y="198" font-family="Consolas,monospace" font-size="11" fill="#DCDCAA">  start_workstation();</text>
  <text x="340" y="218" font-family="Consolas,monospace" font-size="11" fill="#6B7280">  // Ready for AI collaboration</text>
  <text x="340" y="238" font-family="Consolas,monospace" font-size="11" fill="#DCDCAA">  return 0;</text>
  <text x="324" y="258" font-family="Consolas,monospace" font-size="11" fill="#DCDCAA">}</text>
  <!-- Right scrollbar -->
  <rect x="900" y="74" width="20" height="356" fill="#0A0C10"/>
  <rect x="902" y="86" width="16" height="10" rx="2" fill="#3DD68C" opacity="0.6"/>
  <rect x="902" y="102" width="16" height="6" rx="2" fill="#3DD68C" opacity="0.4"/>
  <rect x="902" y="114" width="16" height="12" rx="2" fill="#3DD68C" opacity="0.5"/>
  <rect x="902" y="132" width="16" height="8" rx="2" fill="#3DD68C" opacity="0.3"/>

  <!-- === 分隔线 + Resize handle (y=430) === -->
  <rect x="280" y="430" width="640" height="6" fill="#0A0C10"/>
  <rect x="280" y="430" width="640" height="2" fill="#252A38"/>
  <rect x="590" y="430" width="20" height="6" fill="#1A1D27"/>
  <text x="600" y="437" text-anchor="middle" font-family="sans-serif" font-size="10" fill="#6B7280">⋮</text>

  <!-- === 下部：终端区 (y=436~800) === -->
  <!-- Terminal tab bar -->
  <rect x="280" y="436" width="640" height="28" fill="#0D1117"/>
  <text x="292" y="453" font-family="sans-serif" font-size="10" fill="#6B7280">终端</text>
  <rect x="324" y="439" width="70" height="22" fill="#13151E"/>
  <rect x="324" y="457" width="70" height="3" fill="#3DD68C"/>
  <text x="338" y="454" font-family="Consolas,monospace" font-size="10" fill="#E8ECF4">终端 1</text>
  <rect x="386" y="447" width="8" height="14" rx="4" fill="#252A38"/>
  <text x="390" y="457" text-anchor="middle" font-size="8" fill="#6B7280">✕</text>
  <rect x="470" y="441" width="22" height="18" rx="3" fill="#0D1117" stroke="#252A38" stroke-width="1"/>
  <text x="481" y="454" text-anchor="middle" font-size="12" fill="#6B7280">+</text>

  <!-- Terminal content -->
  <rect x="280" y="464" width="640" height="336" fill="#0D1117"/>
  <text x="292" y="490" font-family="Consolas,monospace" font-size="11" fill="#3DD68C">λ  ai --task "优化登录流程"</text>
  <text x="292" y="512" font-family="Consolas,monospace" font-size="11" fill="#E8ECF4">分析中...</text>
  <text x="292" y="534" font-family="Consolas,monospace" font-size="11" fill="#6C9FFF">[AI] 正在修改 ui_login.cpp</text>
  <text x="292" y="556" font-family="Consolas,monospace" font-size="11" fill="#E8ECF4">diff: -  auth_v1()</text>
  <text x="292" y="570" font-family="Consolas,monospace" font-size="11" fill="#E8ECF4">       +  auth_v2()</text>
  <text x="292" y="592" font-family="Consolas,monospace" font-size="11" fill="#6C9FFF">[AI] 修改完成，耗时 3.2s</text>
  <text x="292" y="620" font-family="Consolas,monospace" font-size="11" fill="#3DD68C">λ  </text>
  <rect x="308" y="606" width="160" height="20" rx="2" fill="#1A1D27"/>
  <text x="314" y="620" font-family="Consolas,monospace" font-size="11" fill="#E8ECF4">git status</text>
  <rect x="472" y="608" width="8" height="16" fill="#3DD68C"/>

  <!-- Right Panel - AI Chat (x=920, w=360) -->
  <rect x="920" y="41" width="360" height="759" fill="#0F1117"/>

  <!-- Markdown output area -->
  <rect x="932" y="58" width="336" height="160" rx="8" fill="#1E2230"/>
  <rect x="932" y="58" width="3" height="160" rx="1.5" fill="#3DD68C"/>
  <text x="944" y="78" font-family="sans-serif" font-size="11" fill="#3DD68C" font-weight="600">## 性能分析报告</text>
  <text x="944" y="98" font-family="sans-serif" font-size="10" fill="#E8ECF4">**问题：** LVGL 刷新策略过于频繁</text>
  <text x="944" y="114" font-family="sans-serif" font-size="10" fill="#E8ECF4">**建议：**</text>
  <text x="954" y="128" font-family="sans-serif" font-size="10" fill="#6C9FFF">• 启用 `LV_DISP_DEF_REFR_PERIOD=30`</text>
  <text x="954" y="142" font-family="sans-serif" font-size="10" fill="#6C9FFF">• 使用 `lv_obj_invalidate()` 局部刷新</text>
  <text x="954" y="156" font-family="sans-serif" font-size="10" fill="#6C9FFF">• 禁用不必要的动画</text>
  <rect x="944" y="164" width="312" height="40" rx="4" fill="#0A0C10"/>
  <text x="952" y="178" font-family="Consolas,monospace" font-size="9" fill="#3DD68C">lv_conf.h:</text>
  <text x="952" y="192" font-family="Consolas,monospace" font-size="9" fill="#6B7280">  #define LV_DISP_DEF_REFR_PERIOD 30</text>

  <!-- User message bubble -->
  <rect x="932" y="228" width="280" height="40" rx="16" fill="#3B82F6"/>
  <text x="944" y="250" font-family="sans-serif" font-size="11" fill="#FFFFFF">帮我优化下性能</text>
  <text x="1192" y="260" text-anchor="end" font-family="sans-serif" font-size="9" fill="#FFFFFF" opacity="0.6">14:32</text>

  <!-- AI markdown response -->
  <rect x="932" y="278" width="336" height="80" rx="8" fill="#1E2230"/>
  <rect x="932" y="278" width="3" height="80" rx="1.5" fill="#3DD68C"/>
  <text x="944" y="298" font-family="sans-serif" font-size="11" fill="#3DD68C" font-weight="600">## 修改完成</text>
  <text x="944" y="316" font-family="sans-serif" font-size="10" fill="#E8ECF4">已在 `ui_login.cpp` 中应用优化：</text>
  <text x="954" y="330" font-family="Consolas,monospace" font-size="9" fill="#6C9FFF">✓ 禁用旋转动画</text>
  <text x="954" y="344" font-family="Consolas,monospace" font-size="9" fill="#6C9FFF">✓ 降低刷新频率至 30ms</text>

  <!-- Thinking indicator -->
  <rect x="932" y="368" width="336" height="28" rx="6" fill="#1A1D27"/>
  <text x="944" y="386" font-family="sans-serif" font-size="10" fill="#6B7280">思考中</text>
  <circle cx="1020" cy="380" r="3" fill="#3DD68C" opacity="0.8"/>
  <circle cx="1032" cy="380" r="3" fill="#3DD68C" opacity="0.5"/>
  <circle cx="1044" cy="380" r="3" fill="#3DD68C" opacity="0.3"/>

  <!-- ===== ctrl_bar (y=661, h=31) ===== -->
  <rect x="920" y="661" width="360" height="31" rx="7" fill="#1A1D27"/>
  <text x="1268" y="680" text-anchor="end" font-family="sans-serif" font-size="9" fill="#6B7280">0/2000</text>
  <rect x="927" y="666" width="69" height="22" rx="11" fill="#3DD68C" fill-opacity="0.12"/>
  <text x="961" y="680" text-anchor="middle" font-family="sans-serif" font-size="9" fill="#3DD68C">Agent ▼</text>
  <rect x="1001" y="666" width="69" height="22" rx="11" fill="#252A38"/>
  <text x="1035" y="680" text-anchor="middle" font-family="sans-serif" font-size="9" fill="#E8ECF4">AI行为 ▼</text>
  <rect x="1075" y="666" width="69" height="22" rx="11" fill="#252A38"/>
  <circle cx="1087" cy="677" r="7" fill="#8B92A8"/>
  <text x="1109" y="680" text-anchor="middle" font-family="sans-serif" font-size="9" fill="#8B92A8">AI托管</text>
  <rect x="1149" y="666" width="69" height="22" rx="11" fill="#252A38"/>
  <circle cx="1161" cy="677" r="7" fill="#8B92A8"/>
  <text x="1183" y="680" text-anchor="middle" font-family="sans-serif" font-size="9" fill="#8B92A8">Voice</text>

  <!-- ===== chat_input (y=692, h=62) ===== -->
  <rect x="920" y="692" width="360" height="62" rx="7" fill="#1A1D27"/>
  <rect x="927" y="697" width="315" height="52" rx="5" fill="#13151E" stroke="#3DD68C" stroke-opacity="0.06" stroke-width="1"/>
  <!-- Attachment chips -->
  <rect x="933" y="702" width="148" height="16" rx="3" fill="#252A38"/>
  <text x="939" y="713" font-family="sans-serif" font-size="8" fill="#6C9FFF">📄 LICENSES.chromium...</text>
  <circle cx="1074" cy="710" r="5" fill="#252A38" stroke="#3DD68C" stroke-width="0.5"/>
  <text x="1074" y="713" text-anchor="middle" font-size="7" fill="#6B7280">✕</text>
  <rect x="1087" y="702" width="100" height="16" rx="3" fill="#252A38"/>
  <text x="1093" y="713" font-family="sans-serif" font-size="8" fill="#6C9FFF">📄 report.pdf</text>
  <circle cx="1180" cy="710" r="5" fill="#252A38" stroke="#3DD68C" stroke-width="0.5"/>
  <text x="1180" y="713" text-anchor="middle" font-size="7" fill="#6B7280">✕</text>
  <!-- Divider -->
  <line x1="927" y1="722" x2="1242" y2="722" stroke="#3DD68C" stroke-opacity="0.06" stroke-width="1"/>
  <!-- Text input -->
  <text x="935" y="738" font-family="sans-serif" font-size="10" fill="#6B7280">输入消息...</text>
  <!-- Attach button -->
  <rect x="1213" y="733" width="21" height="21" rx="5" fill="#252A38"/>
  <text x="1223" y="748" text-anchor="middle" font-size="16" fill="#8B92A8">+</text>
  <!-- Send button -->
  <circle cx="1257" cy="742" r="18" fill="#3DD68C"/>
  <text x="1257" y="748" text-anchor="middle" font-size="14" fill="#0F1117" font-weight="bold">▶</text>

  <!-- Right collapse button (at x=920, on right panel's left edge) -->
  <rect x="920" y="360" width="14" height="40" rx="3" fill="#252A38"/>
  <text x="927" y="384" text-anchor="middle" font-size="10" fill="#6B7280">◀</text>

  <!-- Version -->
  <text x="1272" y="796" text-anchor="end" font-family="sans-serif" font-size="8" fill="#6B7280" opacity="0.4">Matcha v1 · UI-55</text>
</svg>
