<svg xmlns="http://www.w3.org/2000/svg" width="900" height="500" viewBox="0 0 900 500"><style>text{font-family:"Noto Sans SC","PingFang SC",sans-serif}
.t{fill:#2D1B14;font-weight:700}.t2{fill:#2D1B14;font-weight:600}
.s{fill:#8B7355;font-size:12px}.s2{fill:#C4A882;font-size:11px}
.l{fill:#2D1B14;font-size:14px}.l2{fill:#2D1B14;font-size:13px}
.a{fill:#FF7F50}.g{fill:#7ECFB3}.w{fill:#FFF}.dim{fill:#C4A882}</style><defs>
  <filter id="s"><feDropShadow dx="0" dy="4" stdDeviation="12" flood-color="#D4A574" flood-opacity="0.15"/></filter>
  <filter id="s2"><feDropShadow dx="0" dy="2" stdDeviation="6" flood-color="#D4A574" flood-opacity="0.12"/></filter>
  <linearGradient id="ag"><stop offset="0%" stop-color="#FF7F50"/><stop offset="100%" stop-color="#FFB347"/></linearGradient>
  <linearGradient id="pg"><stop offset="0%" stop-color="#FFF8F3"/><stop offset="100%" stop-color="#FFE8D6"/></linearGradient>
  <linearGradient id="mg"><stop offset="0%" stop-color="#7ECFB3"/><stop offset="100%" stop-color="#B8E8D0"/></linearGradient>
  <linearGradient id="pk"><stop offset="0%" stop-color="#FF6B8A"/><stop offset="100%" stop-color="#FFB347"/></linearGradient>
</defs><rect width="900" height="500" fill="#FFF8F3"/><rect x="0" y="0" width="900" height="52" rx="0" fill="#FFF1E8"/><text x="16" y="34" text-anchor="start" class="t2" font-size="16">⚙️ Settings</text><line x1="0" y1="52" x2="900" y2="52" stroke="#F0E0D0" stroke-width="1"/>
<text x="70" y="34" text-anchor="middle" class="s" font-size="12">General</text><text x="165" y="34" text-anchor="middle" class="s" font-size="12">Permissions</text><text x="260" y="34" text-anchor="middle" class="s" font-size="12">Model</text><text x="355" y="34" text-anchor="middle" class="s" font-size="12">Log</text><text x="450" y="34" text-anchor="middle" class="t2" font-size="12">About</text><rect x="420" y="42" width="60" height="3" rx="1.5" fill="#FF7F50"/>
<rect x="350" y="65" width="100" height="100" rx="20" fill="#FFF1E8"/><text x="380" y="125" text-anchor="32" class="start">🧄🦞</text>
<text x="450" y="190" text-anchor="middle" class="t" font-size="22">AnyClaw</text>
<text x="450" y="215" text-anchor="middle" class="s">你的 AI 桌面管家</text>
<text x="450" y="240" text-anchor="middle" class="s">Version 2.2.1</text>
<line x1="250" y1="260" x2="650" y2="260" stroke="#F0E0D0" stroke-width="1"/>
<text x="450" y="285" text-anchor="middle" class="s">LVGL 9.6 + SDL2 · C++17 · Win32</text>
<line x1="250" y1="300" x2="650" y2="300" stroke="#F0E0D0" stroke-width="1"/>
<rect x="250" y="320" width="160" height="36" rx="18" fill="url(#ag)"/><text x="330" y="343" text-anchor="middle" class="w" font-size="13">📤 Export Config</text>
<rect x="430" y="320" width="160" height="36" rx="18" fill="#FF5C5C"/><text x="510" y="343" text-anchor="middle" fill="#FFF" font-size="13">🗑️ Clear Chat</text>
<rect x="250" y="370" width="160" height="36" rx="18" fill="url(#mg)"/><text x="330" y="393" text-anchor="middle" fill="#2D1B14" font-size="13">📦 Export Migration</text>
<rect x="430" y="370" width="160" height="36" rx="18" fill="url(#mg)"/><text x="510" y="393" text-anchor="middle" fill="#2D1B14" font-size="13">📥 Import Migration</text>
<text x="450" y="425" text-anchor="middle" class="dim" font-size="11">© 2026 AnyClaw Project</text>
</svg>