<svg xmlns="http://www.w3.org/2000/svg" width="1450" height="800" viewBox="0 0 1450 800">
  <defs>
    <filter id="shadow" x="-5%" y="-5%" width="110%" height="110%">
      <feDropShadow dx="0" dy="2" stdDeviation="4" flood-color="#000000" flood-opacity="0.3"/>
    </filter>
  </defs>
  <!-- Background -->
  <rect width="1450" height="800" fill="#0F1117"/>
  <!-- Title bar -->
  <rect width="1450" height="48" fill="#13151E"/>
  <text x="20" y="30" font-family="sans-serif" font-size="18">🧄</text>
  <text x="48" y="31" font-family="Inter, sans-serif" font-size="15" font-weight="600" fill="#E8ECF4">AnyClaw</text>
  <!-- Mode switcher -->
  <rect x="160" y="10" width="180" height="28" rx="14" fill="#1A1D27"/>
  <rect x="250" y="12" width="88" height="24" rx="12" fill="#3DD68C"/>
  <text x="206" y="28" text-anchor="middle" font-family="Inter, sans-serif" font-size="12" fill="#8B92A8">Chat</text>
  <text x="294" y="28" text-anchor="middle" font-family="Inter, sans-serif" font-size="12" font-weight="600" fill="#0F1117">Work</text>
  <!-- Window controls -->
  <text x="1390" y="30" text-anchor="middle" font-family="sans-serif" font-size="14" fill="#8B92A8">─ □ ✕</text>
  <!-- Left panel -->
  <rect x="0" y="48" width="240" height="752" fill="#13151E"/>
  <!-- Status card -->
  <rect x="12" y="60" width="216" height="60" rx="8" fill="#1A1D27"/>
  <circle cx="28" cy="85" r="4" fill="#3DD68C"/>
  <text x="40" y="89" font-family="Inter, sans-serif" font-size="12" fill="#3DD68C">运行中</text>
  <text x="24" y="108" font-family="Inter, sans-serif" font-size="11" fill="#6B7280">任务 #47 · 代码重构</text>
  <!-- Task list -->
  <text x="12" y="145" font-family="Inter, sans-serif" font-size="12" fill="#6B7280">任务队列</text>
  <rect x="12" y="155" width="216" height="44" rx="8" fill="#1E2230" stroke="#3DD68C40" stroke-width="1"/>
  <text x="24" y="175" font-family="Inter, sans-serif" font-size="12" fill="#E8ECF4">重构 auth 模块</text>
  <text x="24" y="191" font-family="Inter, sans-serif" font-size="11" fill="#3DD68C">● 进行中</text>
  <rect x="12" y="206" width="216" height="44" rx="8" fill="#1A1D27"/>
  <text x="24" y="226" font-family="Inter, sans-serif" font-size="12" fill="#8B92A8">添加单元测试</text>
  <text x="24" y="242" font-family="Inter, sans-serif" font-size="11" fill="#6B7280">○ 等待中</text>
  <rect x="12" y="257" width="216" height="44" rx="8" fill="#1A1D27"/>
  <text x="24" y="277" font-family="Inter, sans-serif" font-size="12" fill="#8B92A8">更新文档</text>
  <text x="24" y="293" font-family="Inter, sans-serif" font-size="11" fill="#6B7280">○ 等待中</text>
  <!-- Divider -->
  <rect x="240" y="48" width="6" height="752" fill="#3DD68C08"/>
  <!-- Main content area: Step flow -->
  <rect x="246" y="48" width="884" height="752" fill="#0F1117"/>
  <!-- Step flow title -->
  <text x="270" y="80" font-family="Inter, sans-serif" font-size="14" font-weight="600" fill="#E8ECF4">执行步骤</text>
  <!-- Step 1: Read (completed) -->
  <rect x="270" y="95" width="840" height="80" rx="10" fill="#1A1D27" stroke="#3DD68C40" stroke-width="1"/>
  <circle cx="295" cy="135" r="14" fill="#3DD68C"/>
  <text x="295" y="140" text-anchor="middle" font-size="14" fill="#0F1117">✓</text>
  <text x="320" y="125" font-family="Inter, sans-serif" font-size="13" font-weight="600" fill="#E8ECF4">Step 1: 读取文件</text>
  <text x="320" y="148" font-family="JetBrains Mono, monospace" font-size="11" fill="#8B92A8">src/auth/login.ts · 156 行</text>
  <text x="320" y="165" font-family="Inter, sans-serif" font-size="11" fill="#3DD68C">✓ 已完成 · 0.8s</text>
  <!-- Step 2: Write (completed, with actions) -->
  <rect x="270" y="185" width="840" height="100" rx="10" fill="#1A1D27" stroke="#3DD68C40" stroke-width="1"/>
  <circle cx="295" cy="220" r="14" fill="#3DD68C"/>
  <text x="295" y="225" text-anchor="middle" font-size="14" fill="#0F1117">✓</text>
  <text x="320" y="210" font-family="Inter, sans-serif" font-size="13" font-weight="600" fill="#E8ECF4">Step 2: 修改代码</text>
  <text x="320" y="233" font-family="JetBrains Mono, monospace" font-size="11" fill="#8B92A8">+12 行 · -8 行 · 提取 validateToken()</text>
  <text x="320" y="255" font-family="Inter, sans-serif" font-size="11" fill="#3DD68C">✓ 已完成 · 等待确认</text>
  <!-- Action buttons -->
  <rect x="960" y="208" width="60" height="28" rx="6" fill="#3DD68C"/>
  <text x="990" y="227" text-anchor="middle" font-family="Inter, sans-serif" font-size="11" font-weight="600" fill="#0F1117">接受</text>
  <rect x="960" y="242" width="60" height="24" rx="6" fill="none" stroke="#FF6B6B" stroke-width="1"/>
  <text x="990" y="259" text-anchor="middle" font-family="Inter, sans-serif" font-size="10" fill="#FF6B6B">拒绝</text>
  <rect x="1030" y="208" width="60" height="28" rx="6" fill="none" stroke="#8B92A8" stroke-width="1"/>
  <text x="1060" y="227" text-anchor="middle" font-family="Inter, sans-serif" font-size="11" fill="#8B92A8">回退</text>
  <!-- Step 3: Execute (in progress) -->
  <rect x="270" y="295" width="840" height="80" rx="10" fill="#1A1D27" stroke="#FFBE3D40" stroke-width="1"/>
  <circle cx="295" cy="335" r="14" fill="#FFBE3D"/>
  <text x="295" y="340" text-anchor="middle" font-size="12" fill="#0F1117">⟳</text>
  <text x="320" y="325" font-family="Inter, sans-serif" font-size="13" font-weight="600" fill="#E8ECF4">Step 3: 执行测试</text>
  <text x="320" y="348" font-family="JetBrains Mono, monospace" font-size="11" fill="#8B92A8">npm run test -- --grep "auth"</text>
  <text x="320" y="365" font-family="Inter, sans-serif" font-size="11" fill="#FFBE3D">⟳ 执行中... (3/8 通过)</text>
  <!-- Step 4: Pending -->
  <rect x="270" y="385" width="840" height="70" rx="10" fill="#1A1D27" stroke="#3DD68C0A" stroke-width="1"/>
  <circle cx="295" cy="420" r="14" fill="none" stroke="#6B7280" stroke-width="1.5"/>
  <text x="295" y="425" text-anchor="middle" font-size="12" fill="#6B7280">4</text>
  <text x="320" y="415" font-family="Inter, sans-serif" font-size="13" fill="#8B92A8">Step 4: 提交更改</text>
  <text x="320" y="438" font-family="Inter, sans-serif" font-size="11" fill="#6B7280">○ 待确认</text>
  <!-- Output panel (Terminal) -->
  <rect x="270" y="490" width="840" height="280" rx="10" fill="#1A1D27"/>
  <!-- Terminal dots -->
  <circle cx="290" cy="510" r="5" fill="#FF6B6B"/>
  <circle cx="306" cy="510" r="5" fill="#FFBE3D"/>
  <circle cx="322" cy="510" r="5" fill="#3DD68C"/>
  <text x="350" y="514" font-family="Inter, sans-serif" font-size="12" fill="#8B92A8">Terminal Output</text>
  <!-- Terminal content -->
  <text x="285" y="545" font-family="JetBrains Mono, monospace" font-size="11" fill="#3DD68C">$ npm run test</text>
  <text x="285" y="565" font-family="JetBrains Mono, monospace" font-size="11" fill="#8B92A8">  PASS src/auth/__tests__/login.test.ts</text>
  <text x="285" y="582" font-family="JetBrains Mono, monospace" font-size="11" fill="#3DD68C">  ✓ should validate token (12ms)</text>
  <text x="285" y="599" font-family="JetBrains Mono, monospace" font-size="11" fill="#3DD68C">  ✓ should reject expired token (8ms)</text>
  <text x="285" y="616" font-family="JetBrains Mono, monospace" font-size="11" fill="#3DD68C">  ✓ should handle refresh (15ms)</text>
  <text x="285" y="636" font-family="JetBrains Mono, monospace" font-size="11" fill="#FFBE3D">  ⟳ Running: should handle network error...</text>
  <text x="285" y="660" font-family="JetBrains Mono, monospace" font-size="11" fill="#8B92A8">  Tests: 3 passed, 0 failed, 5 pending</text>
  <text x="285" y="680" font-family="JetBrains Mono, monospace" font-size="11" fill="#8B92A8">  Time:  2.4s</text>
  <!-- Right Chat panel -->
  <rect x="1130" y="48" width="320" height="752" fill="#13151E"/>
  <text x="1145" y="80" font-family="Inter, sans-serif" font-size="13" font-weight="600" fill="#E8ECF4">Chat</text>
  <!-- Chat messages -->
  <rect x="1145" y="95" width="290" height="36" rx="8" fill="#1E2230"/>
  <text x="1160" y="118" font-family="Inter, sans-serif" font-size="12" fill="#E8ECF4">开始重构 auth 模块</text>
  <rect x="1145" y="140" width="270" height="50" rx="8" fill="#2B5C3E"/>
  <text x="1160" y="162" font-family="Inter, sans-serif" font-size="12" fill="#E8ECF4">好的，我会先读取文件，然后提取</text>
  <text x="1160" y="180" font-family="Inter, sans-serif" font-size="12" fill="#E8ECF4">validateToken 函数。</text>
  <rect x="1145" y="200" width="290" height="36" rx="8" fill="#1E2230"/>
  <text x="1160" y="223" font-family="Inter, sans-serif" font-size="12" fill="#E8ECF4">测试跑完了吗？</text>
  <rect x="1145" y="245" width="270" height="36" rx="8" fill="#2B5C3E"/>
  <text x="1160" y="268" font-family="Inter, sans-serif" font-size="12" fill="#E8ECF4">正在运行，3/8 通过中...</text>
  <!-- Chat input -->
  <rect x="1145" y="740" width="290" height="36" rx="18" fill="#1A1D27" stroke="#3DD68C20" stroke-width="1"/>
  <text x="1165" y="763" font-family="Inter, sans-serif" font-size="12" fill="#6B7280">发送消息...</text>
</svg>