<svg xmlns="http://www.w3.org/2000/svg" width="560" height="260" viewBox="0 0 560 260">
  <defs>
    <filter id="shadow">
      <feDropShadow dx="0" dy="1" stdDeviation="2" flood-color="#000" flood-opacity="0.2"/>
    </filter>
  </defs>
  <!-- Background -->
  <rect width="560" height="260" fill="#0F1117" rx="8"/>
  <!-- File header -->
  <rect x="16" y="12" width="528" height="32" rx="8" fill="#1E2230" filter="url(#shadow)"/>
  <text x="28" y="33" font-family="sans-serif" font-size="13">✏️</text>
  <text x="48" y="33" font-family="sans-serif" font-size="12" fill="#E8ECF4">main.cpp</text>
  <!-- Status badge -->
  <rect x="130" y="20" width="48" height="18" rx="9" fill="#3DD68C" opacity="0.15"/>
  <text x="142" y="33" font-family="sans-serif" font-size="9" fill="#3DD68C">✓ 修改</text>
  <!-- Diff content area -->
  <rect x="16" y="50" width="528" height="168" rx="8" fill="#1E2230" filter="url(#shadow)"/>
  <!-- Line numbers column -->
  <rect x="16" y="50" width="36" height="168" rx="8" fill="#1A1D27"/>
  <rect x="44" y="50" width="8" height="168" fill="#1A1D27"/>
  <!-- Line numbers -->
  <text x="34" y="70" font-family="monospace" font-size="10" fill="#6B7280" text-anchor="end">12</text>
  <text x="34" y="86" font-family="monospace" font-size="10" fill="#6B7280" text-anchor="end">13</text>
  <text x="34" y="102" font-family="monospace" font-size="10" fill="#6B7280" text-anchor="end">14</text>
  <text x="34" y="118" font-family="monospace" font-size="10" fill="#6B7280" text-anchor="end">15</text>
  <text x="34" y="134" font-family="monospace" font-size="10" fill="#6B7280" text-anchor="end">16</text>
  <text x="34" y="150" font-family="monospace" font-size="10" fill="#6B7280" text-anchor="end">17</text>
  <text x="34" y="166" font-family="monospace" font-size="10" fill="#6B7280" text-anchor="end">18</text>
  <text x="34" y="182" font-family="monospace" font-size="10" fill="#6B7280" text-anchor="end">19</text>
  <text x="34" y="198" font-family="monospace" font-size="10" fill="#6B7280" text-anchor="end">20</text>
  <text x="34" y="214" font-family="monospace" font-size="10" fill="#6B7280" text-anchor="end">21</text>
  <!-- Deleted line (red bg) -->
  <rect x="52" y="58" width="484" height="16" rx="2" fill="#FF6B6B" opacity="0.08"/>
  <text x="56" y="70" font-family="monospace" font-size="10" fill="#FF6B6B">- int main() {</text>
  <!-- Context lines -->
  <text x="56" y="86" font-family="monospace" font-size="10" fill="#E8ECF4">  // Initialize application</text>
  <!-- Deleted line -->
  <rect x="52" y="90" width="484" height="16" rx="2" fill="#FF6B6B" opacity="0.08"/>
  <text x="56" y="102" font-family="monospace" font-size="10" fill="#FF6B6B">-   App app(false);</text>
  <!-- Added line (green bg) -->
  <rect x="52" y="106" width="484" height="16" rx="2" fill="#3DD68C" opacity="0.08"/>
  <text x="56" y="118" font-family="monospace" font-size="10" fill="#3DD68C">+ int main(int argc, char** argv) {</text>
  <!-- Added line -->
  <rect x="52" y="122" width="484" height="16" rx="2" fill="#3DD68C" opacity="0.08"/>
  <text x="56" y="134" font-family="monospace" font-size="10" fill="#3DD68C">+   App app(argc, argv);</text>
  <!-- Context -->
  <text x="56" y="150" font-family="monospace" font-size="10" fill="#E8ECF4">  app.configure();</text>
  <text x="56" y="166" font-family="monospace" font-size="10" fill="#E8ECF4">  app.run();</text>
  <text x="56" y="182" font-family="monospace" font-size="10" fill="#E8ECF4">  return 0;</text>
  <text x="56" y="198" font-family="monospace" font-size="10" fill="#E8ECF4">}</text>
  <!-- Action buttons -->
  <rect x="16" y="226" width="80" height="28" rx="14" fill="#3DD68C" opacity="0.15"/>
  <text x="40" y="245" font-family="sans-serif" font-size="11" fill="#3DD68C">✓ 接受</text>
  <rect x="106" y="226" width="80" height="28" rx="14" fill="#FF6B6B" opacity="0.15"/>
  <text x="130" y="245" font-family="sans-serif" font-size="11" fill="#FF6B6B">✗ 拒绝</text>
  <rect x="196" y="226" width="80" height="28" rx="14" fill="#6C9FFF" opacity="0.15"/>
  <text x="218" y="245" font-family="sans-serif" font-size="11" fill="#6C9FFF">↩ 回退</text>
</svg>