<svg xmlns="http://www.w3.org/2000/svg" width="900" height="500" viewBox="0 0 900 500"><style>text{font-family:"Noto Sans SC","PingFang SC",sans-serif}
.t{fill:#2D1B14;font-weight:700}.t2{fill:#2D1B14;font-weight:600}
.s{fill:#8B7355;font-size:12px}.s2{fill:#C4A882;font-size:11px}
.l{fill:#2D1B14;font-size:14px}.l2{fill:#2D1B14;font-size:13px}
.a{fill:#FF7F50}.g{fill:#7ECFB3}.w{fill:#FFF}.dim{fill:#C4A882}</style><defs>
  <filter id="s"><feDropShadow dx="0" dy="4" stdDeviation="12" flood-color="#D4A574" flood-opacity="0.15"/></filter>
  <filter id="s2"><feDropShadow dx="0" dy="2" stdDeviation="6" flood-color="#D4A574" flood-opacity="0.12"/></filter>
  <linearGradient id="ag"><stop offset="0%" stop-color="#FF7F50"/><stop offset="100%" stop-color="#FFB347"/></linearGradient>
  <linearGradient id="pg"><stop offset="0%" stop-color="#FFF8F3"/><stop offset="100%" stop-color="#FFE8D6"/></linearGradient>
  <linearGradient id="mg"><stop offset="0%" stop-color="#7ECFB3"/><stop offset="100%" stop-color="#B8E8D0"/></linearGradient>
  <linearGradient id="pk"><stop offset="0%" stop-color="#FF6B8A"/><stop offset="100%" stop-color="#FFB347"/></linearGradient>
</defs><rect width="900" height="500" fill="#FFF8F3"/>
<text x="40" y="60" text-anchor="start" class="t" font-size="18">📤 FTP 传输</text><text x="40" y="95" text-anchor="start" class="s">Host:</text><rect x="90" y="82" width="200" height="32" rx="12" fill="#FFF1E8" stroke="#F0E0D0" stroke-width="1"/><text x="105" y="104" text-anchor="start" class="l2" font-size="12">192.168.1.100</text><text x="310" y="95" text-anchor="start" class="s">Port:</text><rect x="355" y="82" width="60" height="32" rx="12" fill="#FFF1E8" stroke="#F0E0D0" stroke-width="1"/><text x="375" y="104" text-anchor="start" class="l2" font-size="12">21</text><text x="40" y="130" text-anchor="start" class="s">User:</text><rect x="90" y="117" width="200" height="32" rx="12" fill="#FFF1E8" stroke="#F0E0D0" stroke-width="1"/><text x="105" y="139" text-anchor="start" class="l2" font-size="12">admin</text><rect x="40" y="160" width="48" height="26" rx="13" fill="#FF7F50"/><text x="100" y="178" text-anchor="start" class="s">FTPS</text><text x="40" y="200" text-anchor="start" class="s">远程路径: /home/user/uploads/</text><rect x="40" y="220" width="400" height="40" rx="12" fill="#FFF1E8" stroke="#F0E0D0" stroke-width="1"/><text x="55" y="246" text-anchor="start" class="dim" font-size="12">选择本地文件...</text><rect x="40" y="280" width="400" height="10" rx="5" fill="#FFF1E8"/><rect x="40" y="280" width="260" height="10" rx="5" fill="url(#ag)"/><text x="40" y="310" text-anchor="start" class="l2">report.pdf 1.2MB / 2.0MB (65%)</text><text x="40" y="335" text-anchor="start" class="s">速度: 5.2 MB/s · 剩余 ~3s</text><rect x="40" y="360" width="120" height="38" rx="18" fill="url(#ag)"/><text x="100" y="384" text-anchor="middle" class="w" font-size="13">开始传输</text><rect x="175" y="360" width="80" height="38" rx="18" fill="#FF5C5C"/><text x="215" y="384" text-anchor="middle" fill="#FFF" font-size="13">取消</text><rect x="40" y="410" width="48" height="26" rx="13" fill="#FF7F50"/><text x="100" y="428" text-anchor="start" class="s">递归上传</text><rect x="180" y="410" width="48" height="26" rx="13" fill="#FF7F50"/><text x="240" y="428" text-anchor="start" class="s">断点续传</text></svg>