<svg xmlns="http://www.w3.org/2000/svg" width="650" height="420" viewBox="0 0 650 420">
  <defs>
    <filter id="shadow" x="-10%" y="-10%" width="120%" height="120%">
      <feDropShadow dx="0" dy="4" stdDeviation="12" flood-color="#000000" flood-opacity="0.5"/>
    </filter>
  </defs>
  <!-- Background overlay -->
  <rect width="650" height="420" fill="#0F1117"/>
  <rect width="650" height="420" fill="#000000" opacity="0.6"/>
  <!-- Dialog -->
  <rect x="50" y="30" width="550" height="360" rx="12" fill="#1E2530" stroke="#3DD68C20" stroke-width="1" filter="url(#shadow)"/>
  <!-- Step indicator -->
  <circle cx="245" cy="68" r="6" fill="#3DD68C"/>
  <circle cx="275" cy="68" r="6" fill="#3DD68C"/>
  <circle cx="305" cy="68" r="6" fill="#3DD68C"/>
  <circle cx="335" cy="68" r="6" fill="#252A38" stroke="#6B7280" stroke-width="1"/>
  <circle cx="365" cy="68" r="6" fill="#252A38" stroke="#6B7280" stroke-width="1"/>
  <circle cx="395" cy="68" r="6" fill="#252A38" stroke="#6B7280" stroke-width="1"/>
  <text x="460" y="73" font-family="Inter, sans-serif" font-size="13" fill="#8B92A8">Step 3/6</text>
  <!-- Title -->
  <text x="325" y="110" text-anchor="middle" font-family="Inter, sans-serif" font-size="18" font-weight="700" fill="#E8ECF4">模型配置</text>
  <!-- Model dropdown -->
  <text x="100" y="145" font-family="Inter, sans-serif" font-size="13" fill="#8B92A8">Model</text>
  <rect x="100" y="152" width="350" height="38" rx="8" fill="#1A1D27" stroke="#3DD68C20" stroke-width="1"/>
  <text x="115" y="176" font-family="JetBrains Mono, monospace" font-size="13" fill="#E8ECF4">gemma-3-4b-it:free</text>
  <text x="435" y="176" font-family="sans-serif" font-size="14" fill="#8B92A8">▾</text>
  <!-- Provider -->
  <text x="100" y="210" font-family="Inter, sans-serif" font-size="13" fill="#8B92A8">Provider</text>
  <text x="180" y="210" font-family="Inter, sans-serif" font-size="13" fill="#6C9FFF">Google AI Studio</text>
  <!-- API Key -->
  <text x="100" y="240" font-family="Inter, sans-serif" font-size="13" fill="#8B92A8">API Key</text>
  <rect x="100" y="248" width="350" height="38" rx="8" fill="#1A1D27" stroke="#3DD68C20" stroke-width="1"/>
  <text x="115" y="272" font-family="JetBrains Mono, monospace" font-size="13" fill="#6B7280">••••••••••••••••••••</text>
  <!-- Eye icon -->
  <rect x="460" y="248" width="38" height="38" rx="8" fill="#252A38" stroke="#3DD68C20" stroke-width="1"/>
  <text x="479" y="273" text-anchor="middle" font-size="16" fill="#8B92A8">👁</text>
  <!-- Recommended models -->
  <text x="100" y="315" font-family="Inter, sans-serif" font-size="12" fill="#6B7280">推荐模型</text>
  <rect x="100" y="325" width="130" height="28" rx="14" fill="#3DD68C1A" stroke="#3DD68C40" stroke-width="1"/>
  <text x="165" y="344" text-anchor="middle" font-family="JetBrains Mono, monospace" font-size="11" fill="#3DD68C">claude-sonnet-4</text>
  <rect x="240" y="325" width="130" height="28" rx="14" fill="#3DD68C1A" stroke="#3DD68C40" stroke-width="1"/>
  <text x="305" y="344" text-anchor="middle" font-family="JetBrains Mono, monospace" font-size="11" fill="#3DD68C">gpt-4o-mini</text>
  <rect x="380" y="325" width="130" height="28" rx="14" fill="#3DD68C1A" stroke="#3DD68C40" stroke-width="1"/>
  <text x="445" y="344" text-anchor="middle" font-family="JetBrains Mono, monospace" font-size="11" fill="#3DD68C">deepseek-v3</text>
</svg>