<svg xmlns="http://www.w3.org/2000/svg" width="900" height="600" viewBox="0 0 900 600">
<style>
  @import url('https://fonts.googleapis.com/css2?family=Noto+Sans+SC:wght@400;500;600;700&amp;display=swap');
  t{font-family:'Noto Sans SC','SF Pro Display','PingFang SC',sans-serif}
  .t{fill:#2D1B14;font-weight:700}.t2{fill:#2D1B14;font-weight:600}
  .s{fill:#8B7355;font-size:12px}.s2{fill:#C4A882;font-size:11px}
  .l{fill:#2D1B14;font-size:14px}.l2{fill:#2D1B14;font-size:13px}
  .a{fill:#FF7F50}.a2{fill:#FFB347}.p{fill:#FF6B8A}
  .g{fill:#7ECFB3}.lv{fill:#B8A9E8}
  .w{fill:#FFFFFF}.dim{fill:#C4A882}
</style>
<defs>
  <filter id="shadow" x="-8%" y="-8%" width="116%" height="120%">
    <feDropShadow dx="0" dy="4" stdDeviation="12" flood-color="#D4A574" flood-opacity="0.15"/>
  </filter>
  <filter id="shadow2" x="-5%" y="-5%" width="110%" height="115%">
    <feDropShadow dx="0" dy="2" stdDeviation="6" flood-color="#D4A574" flood-opacity="0.12"/>
  </filter>
  <linearGradient id="accentGrad" x1="0" y1="0" x2="1" y2="1">
    <stop offset="0%" stop-color="#FF7F50"/><stop offset="100%" stop-color="#FFB347"/>
  </linearGradient>
  <linearGradient id="peachGrad" x1="0" y1="0" x2="0" y2="1">
    <stop offset="0%" stop-color="#FFF8F3"/><stop offset="100%" stop-color="#FFE8D6"/>
  </linearGradient>
  <linearGradient id="cardGrad" x1="0" y1="0" x2="0" y2="1">
    <stop offset="0%" stop-color="#FFFFFF"/><stop offset="100%" stop-color="#FFF8F3"/>
  </linearGradient>
  <linearGradient id="pinkGrad" x1="0" y1="0" x2="1" y2="1">
    <stop offset="0%" stop-color="#FF6B8A"/><stop offset="100%" stop-color="#FFB347"/>
  </linearGradient>
  <linearGradient id="mintGrad" x1="0" y1="0" x2="1" y2="1">
    <stop offset="0%" stop-color="#7ECFB3"/><stop offset="100%" stop-color="#B8E8D0"/>
  </linearGradient>
</defs>
<rect width="900" height="600" fill="#FFF8F3"/>

<rect width="900" height="600" fill="url(#peachGrad)"/>
<rect x="200" y="60" width="500" height="480" rx="28" fill="#FFFFFF" filter="url(#shadow2)" stroke="#F0E0D0" stroke-width="1"/>
<rect x="270" y="95" width="30" height="30" rx="15" fill="#FF7F50"/><text x="285.0" y="114.0" text-anchor="middle" fill="#FFF" font-size="11">●</text><line x1="305" y1="110" x2="595" y2="110" stroke="#FF7F50" stroke-width="2"/>
<text x="605" y="115" text-anchor="end" class="s2">Step 6/6</text>

<text x="450" y="155" text-anchor="middle" class="t" font-size="22">个人信息 👤</text>

<text x="280" y="190" text-anchor="start" class="t2" font-size="14">昵称</text>
<rect x="280" y="200" width="340" height="44" rx="12" fill="#FFF1E8" stroke="#F0E0D0" stroke-width="1"/><text x="295" y="228" text-anchor="start" class="l">小明</text>

<text x="280" y="260" text-anchor="start" class="t2" font-size="14">时区</text>
<rect x="280" y="270" width="340" height="44" rx="12" fill="#FFF1E8" stroke="#F0E0D0" stroke-width="1"/>
<text x="295" y="298" text-anchor="start" class="l">UTC+8 北京/上海</text><text x="600" y="298" class="a" text-anchor="end">▾</text>

<!-- 配置摘要 -->
<text x="280" y="335" text-anchor="start" class="s">── 配置摘要 ──</text>
<rect x="280" y="345" width="340" height="70" rx="12" fill="#FFF1E8"/>
<text x="295" y="367" text-anchor="start" class="s">🤖 模型: gemma-3-4b-it:free</text>
<text x="295" y="390" text-anchor="start" class="s">📱 IM: Telegram ✅</text>

<rect x="320" y="435" width="260" height="52" rx="26" fill="url(#accentGrad)"/><text x="450.0" y="466.0" text-anchor="middle" class="w" font-size="16">🚀 开始使用！</text>

<line x1="250" y1="470" x2="650" y2="470" stroke="#F0E0D0" stroke-width="0"/>
<rect x="410" y="500" width="100" height="38" rx="url(#mintGrad)" fill="#FFF1E8" stroke="#F0E0D0" stroke-width="1"/><text x="460.0" y="524.0" text-anchor="middle" class="l2" font-size="13">← Back</text>

</svg>