<svg xmlns="http://www.w3.org/2000/svg" width="900" height="600" viewBox="0 0 900 600">
<style>
  @import url('https://fonts.googleapis.com/css2?family=Noto+Sans+SC:wght@400;500;600;700&amp;display=swap');
  t{font-family:'Noto Sans SC','SF Pro Display','PingFang SC',sans-serif}
  .t{fill:#2D1B14;font-weight:700}.t2{fill:#2D1B14;font-weight:600}
  .s{fill:#8B7355;font-size:12px}.s2{fill:#C4A882;font-size:11px}
  .l{fill:#2D1B14;font-size:14px}.l2{fill:#2D1B14;font-size:13px}
  .a{fill:#FF7F50}.a2{fill:#FFB347}.p{fill:#FF6B8A}
  .g{fill:#7ECFB3}.lv{fill:#B8A9E8}
  .w{fill:#FFFFFF}.dim{fill:#C4A882}
</style>
<defs>
  <filter id="shadow" x="-8%" y="-8%" width="116%" height="120%">
    <feDropShadow dx="0" dy="4" stdDeviation="12" flood-color="#D4A574" flood-opacity="0.15"/>
  </filter>
  <filter id="shadow2" x="-5%" y="-5%" width="110%" height="115%">
    <feDropShadow dx="0" dy="2" stdDeviation="6" flood-color="#D4A574" flood-opacity="0.12"/>
  </filter>
  <linearGradient id="accentGrad" x1="0" y1="0" x2="1" y2="1">
    <stop offset="0%" stop-color="#FF7F50"/><stop offset="100%" stop-color="#FFB347"/>
  </linearGradient>
  <linearGradient id="peachGrad" x1="0" y1="0" x2="0" y2="1">
    <stop offset="0%" stop-color="#FFF8F3"/><stop offset="100%" stop-color="#FFE8D6"/>
  </linearGradient>
  <linearGradient id="cardGrad" x1="0" y1="0" x2="0" y2="1">
    <stop offset="0%" stop-color="#FFFFFF"/><stop offset="100%" stop-color="#FFF8F3"/>
  </linearGradient>
  <linearGradient id="pinkGrad" x1="0" y1="0" x2="1" y2="1">
    <stop offset="0%" stop-color="#FF6B8A"/><stop offset="100%" stop-color="#FFB347"/>
  </linearGradient>
  <linearGradient id="mintGrad" x1="0" y1="0" x2="1" y2="1">
    <stop offset="0%" stop-color="#7ECFB3"/><stop offset="100%" stop-color="#B8E8D0"/>
  </linearGradient>
</defs>
<rect width="900" height="600" fill="#FFF8F3"/>

<rect width="900" height="600" fill="url(#peachGrad)"/>
<rect x="200" y="60" width="500" height="480" rx="28" fill="#FFFFFF" filter="url(#shadow2)" stroke="#F0E0D0" stroke-width="1"/>
<rect x="270" y="95" width="30" height="30" rx="15" fill="#FF7F50"/><text x="285.0" y="114.0" text-anchor="middle" fill="#FFF" font-size="11">●</text><line x1="305" y1="110" x2="595" y2="110" stroke="#FF7F50" stroke-width="2"/>
<text x="605" y="115" text-anchor="end" class="s2">Step 5/6</text>

<text x="450" y="155" text-anchor="middle" class="t" font-size="22">连接 IM 📱</text>
<text x="450" y="180" text-anchor="middle" class="s">在手机上随时指挥 AnyClaw</text>

<!-- 渠道卡片 -->
<rect x="260" y="200" width="380" height="55" rx="14" fill="#FFFFFF" filter="url(#shadow2)" stroke="#F0E0D0" stroke-width="1"/>
<text x="285" y="232" text-anchor="20" class="start">✈️</text><text x="315" y="232" text-anchor="start" class="l">Telegram</text>
<rect x="555" y="218" width="80" height="28" rx="14" fill="#7ECFB3"/><text x="595.0" y="236.0" text-anchor="middle" fill="#FFF" font-size="11">已连接 ✅</text>

<rect x="260" y="265" width="380" height="55" rx="14" fill="#FFFFFF" filter="url(#shadow2)" stroke="#F0E0D0" stroke-width="1"/>
<text x="285" y="297" text-anchor="20" class="start">🎮</text><text x="315" y="297" text-anchor="start" class="l">Discord</text>
<rect x="555" y="283" width="80" height="28" rx="14" fill="#FFF1E8"/><text x="595.0" y="301.0" text-anchor="middle" class="#FF7F50" font-size="11">配置 →</text>

<rect x="260" y="330" width="380" height="55" rx="14" fill="#FFFFFF" filter="url(#shadow2)" stroke="#F0E0D0" stroke-width="1"/>
<text x="285" y="362" text-anchor="20" class="start">💬</text><text x="315" y="362" text-anchor="start" class="l">WhatsApp</text>
<rect x="555" y="348" width="80" height="28" rx="14" fill="#FFF1E8"/><text x="595.0" y="366.0" text-anchor="middle" class="#FF7F50" font-size="11">配置 →</text>

<text x="450" y="410" text-anchor="middle" class="s">全部 Skip 也完全不影响使用哦~ 😊</text>

<line x1="250" y1="470" x2="650" y2="470" stroke="#F0E0D0" stroke-width="1"/>
<rect x="250" y="485" width="120" height="38" rx="20" fill="#FFF1E8" stroke="#F0E0D0" stroke-width="1"/><text x="310.0" y="509.0" text-anchor="middle" class="l2" font-size="13">退出向导 👋</text>
<rect x="410" y="485" width="100" height="38" rx="19" fill="url(#mintGrad)"/><text x="460.0" y="509.0" text-anchor="middle" fill="#2D1B14" font-size="13">← Back</text>
<rect x="520" y="485" width="120" height="38" rx="19" fill="url(#accentGrad)"/><text x="580.0" y="509.0" text-anchor="middle" class="w" font-size="13">Skip ⏭</text>

</svg>